<svg xmlns="http://www.w3.org/2000/svg" width="128" height="94.733" viewBox="0 0 128 94.733"><g id="Logo_Quadrada_Principal" data-name="Logo Quadrada Principal" transform="translate(-16.66 -12.68)"><path id="Path_4784" data-name="Path 4784" d="M496.491,20.021h10.638c-.012-1.726-1.874-3.158-4.33-3.466V15.221h3.059a1.271,1.271,0,0,0,0-2.541h-8.095a1.271,1.271,0,1,0,0,2.541h3.059v1.334c-2.457.308-4.319,1.74-4.332,3.466Z" transform="translate(-421.15 0)" fill="#d0d0d0"></path><path id="Path_4785" data-name="Path 4785" d="M654.317,687.777a2.123,2.123,0,0,0-1.075-.267,2.208,2.208,0,0,0-1.128.292,2.1,2.1,0,0,0-.766.783,2.207,2.207,0,0,0-.279,1h4.237a2.146,2.146,0,0,0-.263-1.071,1.909,1.909,0,0,0-.726-.732Z" transform="translate(-556.826 -592.303)" fill="#1f1f1f"></path><path id="Path_4786" data-name="Path 4786" d="M452.641,688.291a1.723,1.723,0,0,0-1.164-.4,1.777,1.777,0,0,0-1.18.4,2.434,2.434,0,0,0-.717,1.091,5.271,5.271,0,0,0,0,3.143,2.413,2.413,0,0,0,.717,1.089,1.778,1.778,0,0,0,1.18.4,1.724,1.724,0,0,0,1.164-.4,2.451,2.451,0,0,0,.707-1.089,5.271,5.271,0,0,0,0-3.143A2.474,2.474,0,0,0,452.641,688.291Z" transform="translate(-379.766 -592.637)" fill="#1f1f1f"></path><path id="Path_4787" data-name="Path 4787" d="M141.658,612.32H19.664c-1.658,0-3,2.655-3,5.93v9.541c0,3.275,1.344,5.93,3,5.93H141.657c1.658,0,3-2.655,3-5.93V618.25c0-3.275-1.344-5.93-3-5.93ZM61.779,629.655h-2.8v-5.93a2.048,2.048,0,0,0-.47-1.453,1.718,1.718,0,0,0-1.332-.52,2.034,2.034,0,0,0-1.009.243,1.7,1.7,0,0,0-.684.707,2.409,2.409,0,0,0-.253,1.114v5.838h-2.8V616.189h2.722v5.148h.119a2.876,2.876,0,0,1,1.1-1.4,3.37,3.37,0,0,1,1.914-.51,3.6,3.6,0,0,1,1.838.457,3.126,3.126,0,0,1,1.223,1.309,4.35,4.35,0,0,1,.43,2.035v6.43Zm14.285-2.284a4.423,4.423,0,0,1-1.719,1.828,5.68,5.68,0,0,1-5.293,0,4.423,4.423,0,0,1-1.719-1.828,6.468,6.468,0,0,1,0-5.464,4.422,4.422,0,0,1,1.719-1.828,5.679,5.679,0,0,1,5.293,0,4.422,4.422,0,0,1,1.719,1.828,6.468,6.468,0,0,1,0,5.464Zm10.544,2.314a5.012,5.012,0,0,1-.927.109,4.234,4.234,0,0,1-1.772-.269,2.469,2.469,0,0,1-1.18-.96,2.945,2.945,0,0,1-.415-1.644v-5.26H80.933v-2.1h1.381v-2.419h2.8v2.419h1.9v2.1h-1.9v4.892a1.246,1.246,0,0,0,.119.6.651.651,0,0,0,.331.3,1.318,1.318,0,0,0,.5.086,2.162,2.162,0,0,0,.4-.037l.3-.056.44,2.084q-.211.066-.592.154Zm14.509-4.362H94.239v.006a2.81,2.81,0,0,0,.279,1.3,1.989,1.989,0,0,0,.792.841,2.4,2.4,0,0,0,1.217.3,2.642,2.642,0,0,0,.855-.132,1.778,1.778,0,0,0,.664-.395,1.721,1.721,0,0,0,.421-.644l2.59.171a3.533,3.533,0,0,1-.806,1.628,4.055,4.055,0,0,1-1.565,1.079,5.876,5.876,0,0,1-2.206.385,5.355,5.355,0,0,1-2.679-.635,4.288,4.288,0,0,1-1.726-1.8,5.931,5.931,0,0,1-.605-2.765,5.829,5.829,0,0,1,.605-2.736,4.463,4.463,0,0,1,1.706-1.834,4.957,4.957,0,0,1,2.588-.658,5.337,5.337,0,0,1,1.864.319,4.22,4.22,0,0,1,1.513.956,4.359,4.359,0,0,1,1.009,1.6,6.4,6.4,0,0,1,.362,2.251v.769Zm7.777,4.333h-2.8V616.189h2.8Z" transform="translate(0 -526.308)" fill="#1f1f1f"></path><path id="Path_4788" data-name="Path 4788" d="M147.255,128.754a63.545,63.545,0,0,0-56.64-60.327,4,4,0,0,1,.037.5l.01,1.477H77.068l.01-1.477a3.638,3.638,0,0,1,.039-.516,63.542,63.542,0,0,0-56.8,60.344,2.453,2.453,0,0,0,2.459,2.546H144.8A2.453,2.453,0,0,0,147.255,128.754Z" transform="translate(-3.204 -48.915)" fill="#d0d0d0"></path><path id="Path_4789" data-name="Path 4789" d="M386.49,171.664c.822-1.011,1.541-1.9,2.264-2.787,1.982-2.426,3.957-4.859,5.951-7.274,1.633-1.977,3.3-3.926,4.933-5.908,1.743-2.118,3.52-4.2,5.239-6.33,1.657-2.056,3.291-4.127,4.84-6.275a9.326,9.326,0,0,0,1.9-3.513,6.627,6.627,0,0,0-.77-5.069,6.376,6.376,0,0,0-3.919-2.889,6.593,6.593,0,0,0-4,.223,6.673,6.673,0,0,0-3.814,3.885,4.611,4.611,0,0,0-.317,2.254c.04.367-.081.5-.47.5q-4.348-.022-8.7,0c-.41,0-.521-.126-.5-.525a15.482,15.482,0,0,1,3.1-8.993,16.521,16.521,0,0,1,6.688-5.364,17.243,17.243,0,0,1,4.223-1.114,16.278,16.278,0,0,1,5.037.1,14.423,14.423,0,0,1,6.479,2.752,16.765,16.765,0,0,1,5.227,6.234,14.869,14.869,0,0,1,1.321,4.515,18.7,18.7,0,0,1,.186,2.467,15.3,15.3,0,0,1-2.621,8.416,102.863,102.863,0,0,1-6.31,8.408c-1.672,2.07-3.395,4.1-5.084,6.161-.087.105-.3.186-.223.357.083.2.3.111.46.111h14.119c1.227,0,1.026,0,1.027,1.019,0,2.689-.013,5.378.015,8.068.006.51-.17.594-.624.593-4.84-.013-9.681-.007-14.522-.007H387.11Z" transform="translate(-324.603 -96.24)" fill="#fec613"></path><path id="Path_4790" data-name="Path 4790" d="M190.42,276.837v-34.7h7.131v12.89h.218a9.409,9.409,0,0,1,1.365-2.118,7.174,7.174,0,0,1,2.343-1.807,7.988,7.988,0,0,1,3.608-.728,9.7,9.7,0,0,1,5.19,1.465,10.23,10.23,0,0,1,3.8,4.4,19.742,19.742,0,0,1,.043,14.614,10.315,10.315,0,0,1-3.749,4.47,9.627,9.627,0,0,1-5.3,1.515,8.189,8.189,0,0,1-3.524-.686,7.215,7.215,0,0,1-2.369-1.733,8.6,8.6,0,0,1-1.406-2.118h-.318v4.531Zm6.98-13.27a11.443,11.443,0,0,0,.636,4,5.889,5.889,0,0,0,1.842,2.654,5,5,0,0,0,5.876-.017,5.942,5.942,0,0,0,1.833-2.678,11.5,11.5,0,0,0,.627-3.96,11.3,11.3,0,0,0-.62-3.917A5.837,5.837,0,0,0,205.77,257a5.112,5.112,0,0,0-5.9-.033,5.745,5.745,0,0,0-1.833,2.612,11.3,11.3,0,0,0-.636,3.984Z" transform="translate(-152.51 -201.399)" fill="#1f1f1f"></path><path id="Path_4791" data-name="Path 4791" d="M716.49,276.8V242.1h7.131v12.89h.218a9.408,9.408,0,0,1,1.365-2.118,7.173,7.173,0,0,1,2.343-1.807,7.988,7.988,0,0,1,3.608-.728,9.7,9.7,0,0,1,5.19,1.465,10.231,10.231,0,0,1,3.8,4.4,19.742,19.742,0,0,1,.043,14.614,10.316,10.316,0,0,1-3.749,4.47,9.627,9.627,0,0,1-5.3,1.515,8.189,8.189,0,0,1-3.524-.686,7.215,7.215,0,0,1-2.369-1.733,8.6,8.6,0,0,1-1.406-2.118h-.318V276.8H716.49Zm6.98-13.274a11.442,11.442,0,0,0,.636,4,5.89,5.89,0,0,0,1.842,2.654,5,5,0,0,0,5.876-.017,5.943,5.943,0,0,0,1.833-2.678,11.5,11.5,0,0,0,.627-3.96,11.3,11.3,0,0,0-.62-3.917,5.837,5.837,0,0,0-1.825-2.645,5.112,5.112,0,0,0-5.9-.033,5.745,5.745,0,0,0-1.833,2.612,11.3,11.3,0,0,0-.636,3.984Z" transform="translate(-614.246 -201.364)" fill="#1f1f1f"></path></g></svg>